<svg xmlns="http://www.w3.org/2000/svg" viewBox="0 0 512 512" id="currency-conversion">
  <circle cx="128.5" cy="128.5" r="121" fill="#f69531"></circle>
  <path fill="#f48a31" d="M128.5,7.5A121.16061,121.16061,0,0,0,106,9.60632a121.00486,121.00486,0,0,1,0,237.78736A121.00182,121.00182,0,1,0,128.5,7.5Z"></path>
  <path fill="#fed947" d="M128.5,257A128.5,128.5,0,1,1,257,128.5,128.64543,128.64543,0,0,1,128.5,257Zm0-242A113.5,113.5,0,1,0,242,128.5,113.62872,113.62872,0,0,0,128.5,15Z"></path>
  <circle cx="256" cy="256" r="7.5" fill="#2370b5"></circle>
  <circle cx="224.18" cy="287.82" r="7.5" fill="#2370b5"></circle>
  <circle cx="287.82" cy="224.18" r="7.5" fill="#2370b5"></circle>
  <path fill="#fff" d="M124.38574,195.17285a37.50049,37.50049,0,0,1-37.499-37.5,7.5,7.5,0,0,1,15,0,22.5,22.5,0,0,0,22.499,22.5h.00293l8.64258-.001a22.08741,22.08741,0,0,0-.00293-44.17481l-9.06641-.00146a37.08594,37.08594,0,0,1,.0127-74.17188h8.63867a37.54226,37.54226,0,0,1,37.5,37.5,7.5,7.5,0,0,1-15,0,22.52554,22.52554,0,0,0-22.5-22.5h-8.63867a22.08594,22.08594,0,0,0-.01074,44.17188l9.06738.00146a37.08741,37.08741,0,0,1,.00195,74.17481l-8.64258.001Z"></path>
  <path fill="#fff" d="M128.5 76.82373a7.49974 7.49974 0 0 1-7.5-7.5V51.919a7.5 7.5 0 1 1 15 0V69.32373A7.49974 7.49974 0 0 1 128.5 76.82373zM128.5 212.58105a7.49974 7.49974 0 0 1-7.5-7.5V187.67627a7.5 7.5 0 0 1 15 0v17.40478A7.49974 7.49974 0 0 1 128.5 212.58105z"></path>
  <circle cx="383.5" cy="383.5" r="121" fill="#f69531"></circle>
  <path fill="#f48a31" d="M383.5,262.5a121.16061,121.16061,0,0,0-22.5,2.10632,121.00486,121.00486,0,0,1,0,237.78736A121.00182,121.00182,0,1,0,383.5,262.5Z"></path>
  <path fill="#fed947" d="M383.5,512A128.5,128.5,0,1,1,512,383.5,128.64543,128.64543,0,0,1,383.5,512Zm0-242A113.5,113.5,0,1,0,497,383.5,113.62872,113.62872,0,0,0,383.5,270Z"></path>
  <path fill="#fff" d="M404.26074,450.17627H356.03418a7.49974,7.49974,0,0,1-7.5-7.5V383.5a7.49974,7.49974,0,0,1,7.5-7.5h48.22656a27.53143,27.53143,0,0,1,27.5,27.5v19.17627A27.53143,27.53143,0,0,1,404.26074,450.17627Zm-40.72656-15h40.72656a12.51408,12.51408,0,0,0,12.5-12.5V403.5a12.51408,12.51408,0,0,0-12.5-12.5H363.53418Z"></path>
  <path fill="#fff" d="M404.26074,391H356.03418a7.49974,7.49974,0,0,1-7.5-7.5V324.32373a7.49974,7.49974,0,0,1,7.5-7.5h48.22656a27.53143,27.53143,0,0,1,27.5,27.5V363.5A27.53143,27.53143,0,0,1,404.26074,391Zm-40.72656-15h40.72656a12.51408,12.51408,0,0,0,12.5-12.5V344.32373a12.51408,12.51408,0,0,0-12.5-12.5H363.53418Z"></path>
  <path fill="#fff" d="M371 331.82373a7.49974 7.49974 0 0 1-7.5-7.5V306.919a7.5 7.5 0 0 1 15 0v17.40478A7.49974 7.49974 0 0 1 371 331.82373zM401 331.82373a7.49974 7.49974 0 0 1-7.5-7.5V306.919a7.5 7.5 0 0 1 15 0v17.40478A7.49974 7.49974 0 0 1 401 331.82373zM371 467.58105a7.49974 7.49974 0 0 1-7.5-7.5V442.67627a7.5 7.5 0 1 1 15 0v17.40478A7.49974 7.49974 0 0 1 371 467.58105zM401 467.58105a7.49974 7.49974 0 0 1-7.5-7.5V442.67627a7.5 7.5 0 1 1 15 0v17.40478A7.49974 7.49974 0 0 1 401 467.58105z"></path>
  <path fill="#fff" d="M366.47754 450.17627H342.73926a7.5 7.5 0 0 1 0-15h23.73828a7.5 7.5 0 0 1 0 15zM366.47754 331.82373H342.73926a7.5 7.5 0 0 1 0-15h23.73828a7.5 7.5 0 0 1 0 15z"></path>
  <path fill="#24b378" d="M405.66414 165.67317A160.70991 160.70991 0 0 0 255.65025 29.62132a160.79105 160.79105 0 0 1 206.171 129.44394 4.7018 4.7018 0 0 0 5.22321 3.96314l32.157-3.94827a4.71131 4.71131 0 0 1 4.2867 7.57677L446.678 239.37006a4.7113 4.7113 0 0 1-6.61313.812l-72.71316-56.81017a4.7113 4.7113 0 0 1 2.32643-8.38873l31.8955-3.91616A4.72042 4.72042 0 0 0 405.66414 165.67317zM106.33586 346.32683A160.70991 160.70991 0 0 0 256.34975 482.37868a160.79105 160.79105 0 0 1-206.171-129.44394 4.7018 4.7018 0 0 0-5.22321-3.96314l-32.157 3.94827a4.71131 4.71131 0 0 1-4.2867-7.57677L65.322 272.62994a4.7113 4.7113 0 0 1 6.61313-.812l72.71316 56.81017a4.7113 4.7113 0 0 1-2.32643 8.38873l-31.8955 3.91616A4.72042 4.72042 0 0 0 106.33586 346.32683z"></path>
</svg>
